# xmcd
# 
# Track frame offsets:
#     150
#     15097
#     37172
#     55220
#     102277
#     115272
#     152530
#     168297
# 
# Disc length: 2535
# 
# Revision: 0
# Processed by: cddbd v1.5.2PL0 Copyright (c) Steve Scherf et al.
# Submitted via: BonkEnc v1.0.8
# 
DISCID=5609e508
DTITLE=Stevie Ray Vaughan and Double Trouble - Live at Montreux 1982 and 1985 (Diisc 1: July 17, 1982)
DYEAR=2001
DGENRE=Blues
TTITLE0=Hide Away
TTITLE1=Rude Mood
TTITLE2=Pride and Joy
TTITLE3=Texas Flood
TTITLE4=Love Struck Baby
TTITLE5=Dirty Pool
TTITLE6=Give Me Back My Wig
TTITLE7=Collins Shuffle
EXTD=Disc 1 recorded live at the Montreux International Jazz Festival, Montreux CH-VD, 1982-07-17.\nStevie Ray Vaughan (1954-10-03/1990-08-27): guitar, vocals\nTommy Shannon: bass\nChris Layton: drums\nTrack 4 previously released on the v/a compilation "B
EXTD=lues Explosion" (Atlantic LP 80149, 1984).\nTracks 4 and 8 previously released on the 3CD+DVD box set "SRV" (Epic/Legacy E4K 65714, 2000-11-21).\n2CD: Epic/Legacy E2K 86151 (2001-11-20), UPC 696998615120. YEAR: 2001
EXTT0=
EXTT1=
EXTT2=
EXTT3=
EXTT4=
EXTT5=
EXTT6=
EXTT7=
PLAYORDER=
